<mxfile host="Electron" agent="Mozilla/5.0 (Windows NT 10.0; Win64; x64) AppleWebKit/537.36 (KHTML, like Gecko) draw.io/26.0.4 Chrome/128.0.6613.186 Electron/32.2.5 Safari/537.36" version="26.0.4">
  <diagram name="Página-1" id="Lldr0v3kpr64z7-852WX">
    <mxGraphModel dx="1793" dy="2224" grid="1" gridSize="10" guides="1" tooltips="1" connect="1" arrows="1" fold="1" page="1" pageScale="1" pageWidth="827" pageHeight="1169" math="0" shadow="0">
      <root>
        <mxCell id="0" />
        <mxCell id="1" parent="0" />
        <mxCell id="GAST41TI2rblRG072SL0-26" style="edgeStyle=orthogonalEdgeStyle;rounded=0;orthogonalLoop=1;jettySize=auto;html=1;" edge="1" parent="1" source="GAST41TI2rblRG072SL0-2" target="GAST41TI2rblRG072SL0-3">
          <mxGeometry relative="1" as="geometry" />
        </mxCell>
        <mxCell id="GAST41TI2rblRG072SL0-2" value="&lt;font style=&quot;font-size: 14px;&quot;&gt;&lt;b&gt;DALI&lt;/b&gt;&lt;/font&gt;&lt;div&gt;&lt;font style=&quot;font-size: 14px;&quot;&gt;&lt;b&gt;Digital Addressable Lighting Interface&lt;/b&gt;&lt;/font&gt;&lt;/div&gt;" style="rounded=1;whiteSpace=wrap;html=1;fillColor=#d5e8d4;strokeColor=#82b366;" vertex="1" parent="1">
          <mxGeometry x="290" y="-300" width="340" height="60" as="geometry" />
        </mxCell>
        <mxCell id="GAST41TI2rblRG072SL0-3" value="&lt;p&gt;&lt;font style=&quot;font-size: 14px;&quot;&gt;O &lt;strong style=&quot;&quot;&gt;Digital Addressable Lighting Interface (DALI)&lt;/strong&gt; é uma marca registrada para produtos que controlam sistemas de iluminação através de redes. A tecnologia subjacente foi criada por um consórcio de fabricantes de equipamentos de iluminação como uma evolução dos sistemas de controlo de iluminação baseados em tensões de 1-10 V ou 0-10 V. Além disso, o DALI foi concebido como uma alternativa de padrão aberto a vários protocolos proprietários usados anteriormente.&lt;/font&gt;&lt;/p&gt;&lt;p&gt;&lt;font style=&quot;font-size: 14px;&quot;&gt;Os nomes DALI, &lt;strong&gt;DALI-2&lt;/strong&gt; e &lt;strong&gt;D4i&lt;/strong&gt; são marcas registadas pertencentes à &lt;strong&gt;DiiA&lt;/strong&gt; (Digital Illumination Interface Alliance), uma aliança da indústria de iluminação. A principal função desta aliança é desenvolver, manter e promover esses padrões, garantindo interoperabilidade entre diferentes fabricantes e produtos.&lt;/font&gt;&lt;/p&gt;&lt;p&gt;&lt;font style=&quot;font-size: 14px;&quot;&gt;Em resumo:&lt;/font&gt;&lt;/p&gt;&lt;ul&gt;&lt;li&gt;&lt;font style=&quot;font-size: 14px;&quot;&gt;&lt;strong&gt;DALI&lt;/strong&gt;: Um protocolo para controlar sistemas de iluminação de forma digital e endereçável.&lt;/font&gt;&lt;/li&gt;&lt;li&gt;&lt;font style=&quot;font-size: 14px;&quot;&gt;&lt;strong&gt;DALI-2&lt;/strong&gt;: Uma versão mais avançada do protocolo, com melhorias em funcionalidades e maior interoperabilidade entre equipamentos.&lt;/font&gt;&lt;/li&gt;&lt;li&gt;&lt;font style=&quot;font-size: 14px;&quot;&gt;&lt;strong&gt;D4i&lt;/strong&gt;: Uma extensão do DALI-2, focada em aplicações de iluminação inteligente, como luminárias conectadas a sistemas IoT (Internet das Coisas).&lt;/font&gt;&lt;/li&gt;&lt;/ul&gt;&lt;p&gt;&lt;font style=&quot;font-size: 14px;&quot;&gt;Este sistema é amplamente utilizado para garantir flexibilidade, eficiência e compatibilidade em projetos de iluminação modernos, especialmente em edifícios inteligentes e sistemas de iluminação pública.&lt;/font&gt;&lt;/p&gt;" style="text;whiteSpace=wrap;html=1;fillColor=#f5f5f5;fontColor=#333333;strokeColor=#666666;sketch=1;curveFitting=1;jiggle=2;shadow=1;" vertex="1" parent="1">
          <mxGeometry x="180" y="-100" width="560" height="440" as="geometry" />
        </mxCell>
        <mxCell id="GAST41TI2rblRG072SL0-5" value="&lt;p&gt;&lt;font style=&quot;font-size: 14px;&quot;&gt;O DALI é especificado por uma série de normas técnicas na &lt;strong style=&quot;&quot;&gt;IEC 62386&lt;/strong&gt;, que garantem que equipamentos de diferentes fabricantes funcionem juntos (interoperabilidade).&lt;/font&gt;&lt;/p&gt;&lt;ul&gt;&lt;li&gt;&lt;font style=&quot;font-size: 14px;&quot;&gt;Apenas dispositivos que cumprem os requisitos de teste e certificação da &lt;strong&gt;DiiA&lt;/strong&gt; podem usar a marca DALI.&lt;/font&gt;&lt;/li&gt;&lt;li&gt;&lt;font style=&quot;font-size: 14px;&quot;&gt;Dispositivos são classificados como:&lt;/font&gt;&lt;ul&gt;&lt;li&gt;&lt;font style=&quot;font-size: 14px;&quot;&gt;&lt;strong&gt;Registrados&lt;/strong&gt; (DALI versão 1)&amp;nbsp;&lt;/font&gt;&lt;/li&gt;&lt;li&gt;&lt;font style=&quot;font-size: 14px;&quot;&gt;&lt;strong&gt;Certificados&lt;/strong&gt; (DALI-2), uma versão mais avançada.&lt;/font&gt;&lt;/li&gt;&lt;/ul&gt;&lt;/li&gt;&lt;li&gt;&lt;font style=&quot;font-size: 14px;&quot;&gt;Em &lt;strong style=&quot;&quot;&gt;novembro de 2019&lt;/strong&gt;, a certificação &lt;strong style=&quot;&quot;&gt;D4i&lt;/strong&gt; foi introduzida como uma extensão do DALI-2, voltada para iluminação inteligente.&lt;/font&gt;&lt;/li&gt;&lt;/ul&gt;" style="text;whiteSpace=wrap;html=1;fillColor=#f5f5f5;fontColor=#333333;strokeColor=#666666;sketch=1;curveFitting=1;jiggle=2;shadow=1;" vertex="1" parent="1">
          <mxGeometry x="180" y="340" width="560" height="205" as="geometry" />
        </mxCell>
        <mxCell id="GAST41TI2rblRG072SL0-10" style="edgeStyle=orthogonalEdgeStyle;rounded=0;orthogonalLoop=1;jettySize=auto;html=1;entryX=0;entryY=0.5;entryDx=0;entryDy=0;" edge="1" parent="1" source="GAST41TI2rblRG072SL0-7" target="GAST41TI2rblRG072SL0-9">
          <mxGeometry relative="1" as="geometry" />
        </mxCell>
        <mxCell id="GAST41TI2rblRG072SL0-7" value="&lt;p&gt;&lt;font style=&quot;font-size: 14px;&quot;&gt;A rede &lt;strong style=&quot;&quot;&gt;DALI&lt;/strong&gt; é composta por vários componentes que trabalham juntos para controlar a iluminação:&lt;/font&gt;&lt;/p&gt;&lt;h3&gt;&lt;strong&gt;&lt;font style=&quot;font-size: 14px;&quot;&gt;Componentes principais da rede DALI&lt;/font&gt;&lt;/strong&gt;&lt;/h3&gt;&lt;ol&gt;&lt;li&gt;&lt;p&gt;&lt;font style=&quot;font-size: 14px;&quot;&gt;&lt;strong&gt;Controlador de Aplicação (Application Controller)&lt;/strong&gt;:&lt;/font&gt;&lt;/p&gt;&lt;ul&gt;&lt;li&gt;&lt;font style=&quot;font-size: 14px;&quot;&gt;É o &quot;cérebro&quot; da rede ou seja &lt;b&gt;MASTER&lt;/b&gt;, que controla, configura e consulta os dispositivos.&lt;/font&gt;&lt;/li&gt;&lt;/ul&gt;&lt;/li&gt;&lt;li&gt;&lt;p&gt;&lt;font style=&quot;font-size: 14px;&quot;&gt;&lt;strong&gt;Fonte de Alimentação do Barramento (Bus Power Supply)&lt;/strong&gt;:&lt;/font&gt;&lt;/p&gt;&lt;ul&gt;&lt;li&gt;&lt;font style=&quot;font-size: 14px;&quot;&gt;Fornece energia ao sistema DALI, essencial para a comunicação entre os dispositivos.&lt;/font&gt;&lt;/li&gt;&lt;/ul&gt;&lt;/li&gt;&lt;li&gt;&lt;p&gt;&lt;font style=&quot;font-size: 14px;&quot;&gt;&lt;strong&gt;Dispositivos de Entrada&lt;/strong&gt;:&lt;/font&gt;&lt;/p&gt;&lt;ul&gt;&lt;li&gt;&lt;font style=&quot;font-size: 14px;&quot;&gt;&lt;strong&gt;Sensores&lt;/strong&gt; (ex.: detetores de movimento ou luminosidade).&lt;/font&gt;&lt;/li&gt;&lt;li&gt;&lt;font style=&quot;font-size: 14px;&quot;&gt;&lt;strong&gt;Botões de pressão&lt;/strong&gt; para controlar manualmente as luzes.&lt;/font&gt;&lt;/li&gt;&lt;/ul&gt;&lt;/li&gt;&lt;li&gt;&lt;p&gt;&lt;font style=&quot;font-size: 14px; color: rgb(102, 0, 0);&quot;&gt;&lt;b&gt;Equipamentos de Controlo (Control Gear):&lt;/b&gt;&lt;/font&gt;&lt;/p&gt;&lt;ul&gt;&lt;li&gt;&lt;font style=&quot;font-size: 14px; color: rgb(102, 0, 0);&quot;&gt;&lt;b&gt;Componentes como balastros eletrónicos, drivers de LEDs ou dimmers, que controlam diretamente as luzes e têm interfaces DALI.&lt;/b&gt;&lt;/font&gt;&lt;/li&gt;&lt;/ul&gt;&lt;/li&gt;&lt;/ol&gt;&lt;hr&gt;&lt;h3&gt;&lt;strong&gt;&lt;font style=&quot;font-size: 14px;&quot;&gt;Características do protocolo DALI&lt;/font&gt;&lt;/strong&gt;&lt;/h3&gt;&lt;ol&gt;&lt;li&gt;&lt;p&gt;&lt;font style=&quot;font-size: 14px;&quot;&gt;&lt;strong&gt;Comunicação bidirecional&lt;/strong&gt;:&lt;/font&gt;&lt;/p&gt;&lt;ul&gt;&lt;li&gt;&lt;font style=&quot;font-size: 14px;&quot;&gt;Os controladores podem enviar comandos aos dispositivos e, ao mesmo tempo, receber informações de estado ou configuração.&lt;/font&gt;&lt;/li&gt;&lt;/ul&gt;&lt;/li&gt;&lt;li&gt;&lt;p&gt;&lt;font style=&quot;font-size: 14px;&quot;&gt;&lt;strong&gt;Endereçamento flexível&lt;/strong&gt;:&lt;/font&gt;&lt;/p&gt;&lt;ul&gt;&lt;li&gt;&lt;font style=&quot;font-size: 14px;&quot;&gt;Os dispositivos podem ser controlados:&lt;/font&gt;&lt;ul&gt;&lt;li&gt;&lt;font style=&quot;font-size: 14px;&quot;&gt;Individualmente (um por um).&lt;/font&gt;&lt;/li&gt;&lt;li&gt;&lt;font style=&quot;font-size: 14px;&quot;&gt;Em grupos (ex.: todas as luzes de uma sala).&lt;/font&gt;&lt;/li&gt;&lt;li&gt;&lt;font style=&quot;font-size: 14px;&quot;&gt;Por broadcast (todos os dispositivos ao mesmo tempo).&lt;/font&gt;&lt;/li&gt;&lt;/ul&gt;&lt;/li&gt;&lt;/ul&gt;&lt;/li&gt;&lt;li&gt;&lt;p&gt;&lt;font style=&quot;font-size: 14px;&quot;&gt;&lt;strong&gt;Cenários (Scenes)&lt;/strong&gt;:&lt;/font&gt;&lt;/p&gt;&lt;ul&gt;&lt;li&gt;&lt;font style=&quot;font-size: 14px;&quot;&gt;Os dispositivos podem armazenar configurações pré-definidas, como níveis de iluminação específicos, que podem ser ativados de forma rápida.&lt;/font&gt;&lt;/li&gt;&lt;/ul&gt;&lt;/li&gt;&lt;li&gt;&lt;p&gt;&lt;font style=&quot;font-size: 14px;&quot;&gt;&lt;strong&gt;Vantagem sobre DMX&lt;/strong&gt;:&lt;/font&gt;&lt;/p&gt;&lt;ul&gt;&lt;li&gt;&lt;font style=&quot;font-size: 14px;&quot;&gt;Diferente do protocolo DMX, o DALI permite que vários controladores existam na mesma rede, proporcionando maior flexibilidade.&lt;/font&gt;&lt;/li&gt;&lt;/ul&gt;&lt;/li&gt;&lt;li&gt;&lt;p&gt;&lt;font style=&quot;font-size: 14px;&quot;&gt;&lt;strong&gt;Tempo de resposta&lt;/strong&gt;:&lt;/font&gt;&lt;/p&gt;&lt;ul&gt;&lt;li&gt;&lt;font style=&quot;font-size: 14px;&quot;&gt;Cada pacote de dados demora cerca de &lt;strong&gt;25 ms&lt;/strong&gt; para ser enviado.&lt;/font&gt;&lt;/li&gt;&lt;li&gt;&lt;font style=&quot;font-size: 14px;&quot;&gt;Para alterar o nível de todos os &lt;strong style=&quot;&quot;&gt;64 dispositivos&lt;/strong&gt; da rede, seriam necessários aproximadamente &lt;strong style=&quot;&quot;&gt;1,6 segundos&lt;/strong&gt;. (0.025s x 64)&lt;/font&gt;&lt;/li&gt;&lt;/ul&gt;&lt;/li&gt;&lt;/ol&gt;" style="text;whiteSpace=wrap;html=1;fillColor=#f5f5f5;fontColor=#333333;strokeColor=#666666;sketch=1;curveFitting=1;jiggle=2;shadow=1;" vertex="1" parent="1">
          <mxGeometry x="950" y="-220" width="560" height="880" as="geometry" />
        </mxCell>
        <mxCell id="GAST41TI2rblRG072SL0-13" style="edgeStyle=orthogonalEdgeStyle;rounded=0;orthogonalLoop=1;jettySize=auto;html=1;" edge="1" parent="1" source="GAST41TI2rblRG072SL0-9" target="GAST41TI2rblRG072SL0-12">
          <mxGeometry relative="1" as="geometry" />
        </mxCell>
        <mxCell id="GAST41TI2rblRG072SL0-9" value="&lt;p&gt;&lt;font style=&quot;font-size: 14px;&quot;&gt;No sistema DALI, cada dispositivo recebe um endereço curto único entre 0 e 63, permitindo conectar até 64 dispositivos num sistema básico. Aqui está a explicação:&lt;/font&gt;&lt;/p&gt;&lt;h3&gt;&lt;font style=&quot;font-size: 14px; font-weight: normal;&quot;&gt;Como funciona a atribuição de endereços?&lt;/font&gt;&lt;/h3&gt;&lt;ol&gt;&lt;li&gt;&lt;p&gt;&lt;font style=&quot;font-size: 14px;&quot;&gt;Endereço curto (short address):&lt;/font&gt;&lt;/p&gt;&lt;ul&gt;&lt;li&gt;&lt;font style=&quot;font-size: 14px;&quot;&gt;Cada dispositivo recebe um endereço único, permitindo o controlo individual dentro da rede.&lt;/font&gt;&lt;/li&gt;&lt;li&gt;&lt;font style=&quot;font-size: 14px;&quot;&gt;O intervalo vai de 0 a 63.&lt;/font&gt;&lt;/li&gt;&lt;/ul&gt;&lt;/li&gt;&lt;li&gt;&lt;p&gt;&lt;font style=&quot;font-size: 14px;&quot;&gt;Processo de atribuição (commissioning):&lt;/font&gt;&lt;/p&gt;&lt;ul&gt;&lt;li&gt;&lt;font style=&quot;font-size: 14px;&quot;&gt;É realizado pelo controlador DALI.&lt;/font&gt;&lt;/li&gt;&lt;li&gt;&lt;font style=&quot;font-size: 14px;&quot;&gt;O processo ocorre após a instalação de todo o hardware ou à medida que novos dispositivos são adicionados.&lt;/font&gt;&lt;/li&gt;&lt;li&gt;&lt;font style=&quot;font-size: 14px;&quot;&gt;A comunicação ocorre diretamente através do barramento DALI (bus).&lt;/font&gt;&lt;/li&gt;&lt;/ul&gt;&lt;/li&gt;&lt;li&gt;&lt;p&gt;&lt;font style=&quot;font-size: 14px;&quot;&gt;Endereçamento de dispositivos:&lt;/font&gt;&lt;/p&gt;&lt;ul&gt;&lt;li&gt;&lt;font style=&quot;font-size: 14px;&quot;&gt;Geralmente, os dispositivos são drivers de LED.&lt;/font&gt;&lt;/li&gt;&lt;li&gt;&lt;font style=&quot;font-size: 14px;&quot;&gt;Um driver pode controlar uma ou várias luzes LED, todas com o mesmo nível de brilho.&lt;/font&gt;&lt;/li&gt;&lt;/ul&gt;&lt;/li&gt;&lt;/ol&gt;" style="text;whiteSpace=wrap;html=1;fillColor=#f5f5f5;fontColor=#333333;strokeColor=#666666;sketch=1;curveFitting=1;jiggle=2;shadow=1;" vertex="1" parent="1">
          <mxGeometry x="1580" y="22.5" width="560" height="395" as="geometry" />
        </mxCell>
        <mxCell id="GAST41TI2rblRG072SL0-15" style="edgeStyle=orthogonalEdgeStyle;rounded=0;orthogonalLoop=1;jettySize=auto;html=1;" edge="1" parent="1" source="GAST41TI2rblRG072SL0-12" target="GAST41TI2rblRG072SL0-14">
          <mxGeometry relative="1" as="geometry" />
        </mxCell>
        <mxCell id="GAST41TI2rblRG072SL0-12" value="&lt;h3&gt;&lt;strong&gt;Tipos de drivers DALI&lt;/strong&gt;&lt;/h3&gt;&lt;ol&gt;&lt;li&gt;&lt;p&gt;&lt;strong&gt;DT6 (Device Type 6)&lt;/strong&gt;:&lt;/p&gt;&lt;ul&gt;&lt;li&gt;Utilizado para aplicações de &lt;strong&gt;temperatura de cor única&lt;/strong&gt;.&lt;/li&gt;&lt;li&gt;Exemplo: LEDs com uma única tonalidade (branco frio ou quente).&lt;/li&gt;&lt;/ul&gt;&lt;/li&gt;&lt;li&gt;&lt;p&gt;&lt;strong&gt;DT8 (Device Type 8)&lt;/strong&gt;:&lt;/p&gt;&lt;ul&gt;&lt;li&gt;Projetado para &lt;strong&gt;afinação de cor (CCT)&lt;/strong&gt; ou aplicações multicoloridas como RGB, RGBW, ou RGBWW.&lt;/li&gt;&lt;li&gt;Exemplo: Uma tira LED onde todas as luzes (ou &quot;píxeis&quot;) têm a mesma cor simultaneamente.&lt;/li&gt;&lt;/ul&gt;&lt;/li&gt;&lt;/ol&gt;" style="text;whiteSpace=wrap;html=1;fillColor=#f5f5f5;fontColor=#333333;strokeColor=#666666;sketch=1;curveFitting=1;jiggle=2;shadow=1;" vertex="1" parent="1">
          <mxGeometry x="2210" y="105" width="560" height="230" as="geometry" />
        </mxCell>
        <mxCell id="GAST41TI2rblRG072SL0-14" value="&lt;p&gt;&lt;font style=&quot;font-size: 14px;&quot;&gt;No sistema DALI, a transferência de dados entre dispositivos funciona com as seguintes características principais:&lt;/font&gt;&lt;/p&gt;&lt;h3&gt;&lt;strong&gt;&lt;font style=&quot;font-size: 14px;&quot;&gt;Protocolo de Comunicação&lt;/font&gt;&lt;/strong&gt;&lt;/h3&gt;&lt;ol&gt;&lt;li&gt;&lt;p&gt;&lt;font style=&quot;font-size: 14px;&quot;&gt;&lt;strong&gt;Assíncrono&lt;/strong&gt;:&lt;/font&gt;&lt;/p&gt;&lt;ul&gt;&lt;li&gt;&lt;font style=&quot;font-size: 14px;&quot;&gt;A transmissão de dados ocorre sem sincronização contínua entre os dispositivos, ou seja, cada mensagem é enviada de forma independente.&lt;/font&gt;&lt;/li&gt;&lt;/ul&gt;&lt;/li&gt;&lt;li&gt;&lt;p&gt;&lt;font style=&quot;font-size: 14px;&quot;&gt;&lt;strong&gt;Half-duplex&lt;/strong&gt;:&lt;/font&gt;&lt;/p&gt;&lt;ul&gt;&lt;li&gt;&lt;font style=&quot;font-size: 14px;&quot;&gt;Os dispositivos podem enviar &lt;strong&gt;ou&lt;/strong&gt; receber dados, mas nunca ao mesmo tempo.&lt;/font&gt;&lt;/li&gt;&lt;/ul&gt;&lt;/li&gt;&lt;li&gt;&lt;p&gt;&lt;font style=&quot;font-size: 14px;&quot;&gt;&lt;strong&gt;Serial&lt;/strong&gt;:&lt;/font&gt;&lt;/p&gt;&lt;ul&gt;&lt;li&gt;&lt;font style=&quot;font-size: 14px;&quot;&gt;Os dados são enviados em sequência, um bit de cada vez, através do barramento.&lt;/font&gt;&lt;/li&gt;&lt;/ul&gt;&lt;/li&gt;&lt;/ol&gt;" style="text;whiteSpace=wrap;html=1;fillColor=#f5f5f5;fontColor=#333333;strokeColor=#666666;sketch=1;curveFitting=1;jiggle=2;shadow=1;" vertex="1" parent="1">
          <mxGeometry x="2858" y="60" width="560" height="320" as="geometry" />
        </mxCell>
        <mxCell id="GAST41TI2rblRG072SL0-16" value="&lt;h3&gt;&lt;strong&gt;&lt;font style=&quot;font-size: 14px;&quot;&gt;Barramento de Dois Fios&lt;/font&gt;&lt;/strong&gt;&lt;/h3&gt;&lt;ul&gt;&lt;li&gt;&lt;font style=&quot;font-size: 14px;&quot;&gt;A comunicação ocorre sobre &lt;strong&gt;dois fios&lt;/strong&gt; que formam o barramento DALI, usado para ligar todos os dispositivos.&lt;/font&gt;&lt;/li&gt;&lt;li&gt;&lt;font style=&quot;font-size: 14px;&quot;&gt;Esses fios carregam tanto o sinal de controlo quanto a alimentação elétrica necessária para a comunicação.&lt;/font&gt;&lt;/li&gt;&lt;/ul&gt;" style="text;whiteSpace=wrap;html=1;fillColor=#f5f5f5;fontColor=#333333;strokeColor=#666666;sketch=1;curveFitting=1;jiggle=2;shadow=1;" vertex="1" parent="1">
          <mxGeometry x="3470" width="560" height="140" as="geometry" />
        </mxCell>
        <mxCell id="GAST41TI2rblRG072SL0-19" value="&lt;h3&gt;&lt;strong&gt;&lt;font style=&quot;font-size: 14px;&quot;&gt;Taxa de Transferência&lt;/font&gt;&lt;/strong&gt;&lt;/h3&gt;&lt;ul&gt;&lt;li&gt;&lt;font style=&quot;font-size: 14px;&quot;&gt;A velocidade de transmissão de dados é fixa em &lt;strong&gt;1200 bits por segundo&lt;/strong&gt;.&lt;/font&gt;&lt;/li&gt;&lt;li&gt;&lt;font style=&quot;font-size: 14px;&quot;&gt;Essa taxa relativamente baixa é adequada para o tipo de controle simples usado em sistemas de iluminação.&lt;/font&gt;&lt;/li&gt;&lt;/ul&gt;" style="text;whiteSpace=wrap;html=1;fillColor=#f5f5f5;fontColor=#333333;strokeColor=#666666;sketch=1;curveFitting=1;jiggle=2;shadow=1;" vertex="1" parent="1">
          <mxGeometry x="3470" y="150" width="560" height="120" as="geometry" />
        </mxCell>
        <mxCell id="GAST41TI2rblRG072SL0-21" value="&lt;h3&gt;&lt;strong&gt;&lt;font style=&quot;font-size: 14px;&quot;&gt;Deteção de Colisões&lt;/font&gt;&lt;/strong&gt;&lt;/h3&gt;&lt;ul&gt;&lt;li&gt;&lt;font style=&quot;font-size: 14px;&quot;&gt;Como vários dispositivos podem tentar transmitir dados ao mesmo tempo no mesmo barramento:&lt;/font&gt;&lt;ul&gt;&lt;li&gt;&lt;font style=&quot;font-size: 14px;&quot;&gt;É utilizado um mecanismo de &lt;strong&gt;deteção de colisões&lt;/strong&gt;.&lt;/font&gt;&lt;/li&gt;&lt;li&gt;&lt;font style=&quot;font-size: 14px;&quot;&gt;Isso garante que apenas um dispositivo transmita por vez, evitando conflitos e perdas de dados.&lt;/font&gt;&lt;/li&gt;&lt;/ul&gt;&lt;/li&gt;&lt;/ul&gt;" style="text;whiteSpace=wrap;html=1;fillColor=#f5f5f5;fontColor=#333333;strokeColor=#666666;sketch=1;curveFitting=1;jiggle=2;shadow=1;" vertex="1" parent="1">
          <mxGeometry x="3470" y="280" width="560" height="150" as="geometry" />
        </mxCell>
        <mxCell id="GAST41TI2rblRG072SL0-27" value="&lt;span style=&quot;font-size: 14px;&quot;&gt;&lt;b&gt;Technical Overview&lt;/b&gt;&lt;/span&gt;" style="rounded=1;whiteSpace=wrap;html=1;fillColor=#cce5ff;strokeColor=#36393d;" vertex="1" parent="1">
          <mxGeometry x="950" y="-300" width="340" height="60" as="geometry" />
        </mxCell>
        <mxCell id="GAST41TI2rblRG072SL0-28" value="&lt;p style=&quot;&quot;&gt;&lt;font style=&quot;font-size: 14px;&quot;&gt;No sistema DALI, a comunicação ocorre através de um &lt;strong style=&quot;&quot;&gt;par único de fios&lt;/strong&gt; que compõe o barramento (bus). Aqui estão os pontos principais:&lt;/font&gt;&lt;/p&gt;&lt;h3 style=&quot;&quot;&gt;&lt;strong&gt;&lt;font style=&quot;font-size: 14px;&quot;&gt;Topologias de Rede&lt;/font&gt;&lt;/strong&gt;&lt;/h3&gt;&lt;ul&gt;&lt;li&gt;&lt;div style=&quot;&quot;&gt;&lt;span style=&quot;font-size: 14px; background-color: transparent; color: light-dark(rgb(51, 51, 51), rgb(193, 193, 193));&quot;&gt;A rede pode ser configurada em diferentes formatos:&lt;/span&gt;&lt;/div&gt;&lt;ul&gt;&lt;li style=&quot;&quot;&gt;&lt;font style=&quot;font-size: 14px;&quot;&gt;&lt;strong&gt;Topologia de barramento (bus)&lt;/strong&gt;: Os dispositivos são conectados em linha ao longo do mesmo par de fios.&lt;/font&gt;&lt;/li&gt;&lt;li style=&quot;&quot;&gt;&lt;font style=&quot;font-size: 14px;&quot;&gt;&lt;strong&gt;Topologia em estrela&lt;/strong&gt;: Os dispositivos são conectados a partir de um ponto central.&lt;/font&gt;&lt;/li&gt;&lt;li style=&quot;&quot;&gt;&lt;font style=&quot;font-size: 14px;&quot;&gt;&lt;strong style=&quot;&quot;&gt;Combinação&lt;/strong&gt;: Uma mistura das duas abordagens acima.&lt;/font&gt;&lt;/li&gt;&lt;/ul&gt;&lt;/li&gt;&lt;/ul&gt;" style="text;whiteSpace=wrap;html=1;fillColor=#f5f5f5;fontColor=#333333;strokeColor=#666666;sketch=1;curveFitting=1;jiggle=2;shadow=1;align=left;" vertex="1" parent="1">
          <mxGeometry x="4090" width="860" height="185" as="geometry" />
        </mxCell>
        <mxCell id="GAST41TI2rblRG072SL0-29" value="&lt;h3&gt;&lt;strong&gt;&lt;font style=&quot;font-size: 14px;&quot;&gt;Eficiência no Uso de Fios&lt;/font&gt;&lt;/strong&gt;&lt;/h3&gt;&lt;ul&gt;&lt;li&gt;&lt;font style=&quot;font-size: 14px;&quot;&gt;A rede DALI utiliza menos fios porque:&lt;/font&gt;&lt;ul&gt;&lt;li&gt;&lt;font style=&quot;font-size: 14px;&quot;&gt;Um único par é suficiente para alimentação e comunicação.&lt;/font&gt;&lt;/li&gt;&lt;li&gt;&lt;font style=&quot;font-size: 14px;&quot;&gt;Em comparação, sistemas como &lt;strong style=&quot;&quot;&gt;DSI&lt;/strong&gt; ou &lt;strong style=&quot;&quot;&gt;0-10V&lt;/strong&gt; frequentemente precisam de mais fios para cada dispositivo ou grupo de dispositivos.&lt;/font&gt;&lt;/li&gt;&lt;/ul&gt;&lt;/li&gt;&lt;/ul&gt;" style="text;whiteSpace=wrap;html=1;fillColor=#f5f5f5;fontColor=#333333;strokeColor=#666666;sketch=1;curveFitting=1;jiggle=2;shadow=1;" vertex="1" parent="1">
          <mxGeometry x="4090" y="195" width="860" height="140" as="geometry" />
        </mxCell>
        <mxCell id="GAST41TI2rblRG072SL0-30" value="&lt;font style=&quot;font-size: 14px;&quot;&gt;No sistema DALI, o &lt;strong style=&quot;&quot;&gt;barramento (bus)&lt;/strong&gt; é usado tanto para transmitir sinais de controle quanto para fornecer alimentação elétrica aos dispositivos. Aqui está uma explicação detalhada:&lt;/font&gt;" style="text;whiteSpace=wrap;html=1;fillColor=#f5f5f5;fontColor=#333333;strokeColor=#666666;sketch=1;curveFitting=1;jiggle=2;shadow=1;" vertex="1" parent="1">
          <mxGeometry x="4997" y="-70" width="740" height="60" as="geometry" />
        </mxCell>
        <mxCell id="GAST41TI2rblRG072SL0-31" value="&lt;h3&gt;&lt;strong&gt;&lt;font style=&quot;font-size: 14px;&quot;&gt;Alimentação do Barramento&lt;/font&gt;&lt;/strong&gt;&lt;/h3&gt;&lt;ol&gt;&lt;li&gt;&lt;p&gt;&lt;font style=&quot;font-size: 14px;&quot;&gt;&lt;strong&gt;Fonte de Alimentação do Barramento&lt;/strong&gt;:&lt;/font&gt;&lt;/p&gt;&lt;ul&gt;&lt;li&gt;&lt;font style=&quot;font-size: 14px;&quot;&gt;O barramento fornece uma corrente limitada de até &lt;strong&gt;250 mA&lt;/strong&gt;, geralmente a uma tensão de &lt;strong&gt;16 V DC&lt;/strong&gt;.&lt;/font&gt;&lt;/li&gt;&lt;li&gt;&lt;font style=&quot;font-size: 14px;&quot;&gt;É necessário um dispositivo dedicado para fornecer essa alimentação ao barramento.&lt;/font&gt;&lt;/li&gt;&lt;/ul&gt;&lt;/li&gt;&lt;li&gt;&lt;p&gt;&lt;font style=&quot;font-size: 14px;&quot;&gt;&lt;strong&gt;Consumo de Energia dos Dispositivos&lt;/strong&gt;:&lt;/font&gt;&lt;/p&gt;&lt;ul&gt;&lt;li&gt;&lt;font style=&quot;font-size: 14px;&quot;&gt;Cada dispositivo conectado pode consumir até &lt;strong&gt;2 mA&lt;/strong&gt;, exceto se for alimentado diretamente pela rede elétrica (&lt;strong&gt;mains-powered&lt;/strong&gt;).&lt;/font&gt;&lt;/li&gt;&lt;li&gt;&lt;font style=&quot;font-size: 14px;&quot;&gt;Dispositivos de baixo consumo, como sensores de movimento, podem ser alimentados diretamente pelo barramento.&lt;/font&gt;&lt;/li&gt;&lt;/ul&gt;&lt;/li&gt;&lt;/ol&gt;" style="text;whiteSpace=wrap;html=1;fillColor=#f5f5f5;fontColor=#333333;strokeColor=#666666;sketch=1;curveFitting=1;jiggle=2;shadow=1;" vertex="1" parent="1">
          <mxGeometry x="4997" width="740" height="230" as="geometry" />
        </mxCell>
        <mxCell id="GAST41TI2rblRG072SL0-32" value="&lt;h3&gt;&lt;strong&gt;Insensibilidade à Polaridade&lt;/strong&gt;&lt;/h3&gt;&lt;ul&gt;&lt;li&gt;Cada dispositivo possui um &lt;strong&gt;retificador de ponte&lt;/strong&gt; (bridge rectifier) na entrada.&lt;/li&gt;&lt;li&gt;Isso significa que a ligação dos fios do barramento não tem uma polaridade específica, simplificando a instalação.&lt;/li&gt;&lt;/ul&gt;" style="text;whiteSpace=wrap;html=1;fillColor=#f5f5f5;fontColor=#333333;strokeColor=#666666;sketch=1;curveFitting=1;jiggle=2;shadow=1;" vertex="1" parent="1">
          <mxGeometry x="4997" y="240" width="740" height="90" as="geometry" />
        </mxCell>
        <mxCell id="GAST41TI2rblRG072SL0-33" value="&lt;h3&gt;&lt;strong&gt;Comunicação no Barramento&lt;/strong&gt;&lt;/h3&gt;&lt;ol&gt;&lt;li&gt;&lt;p&gt;&lt;strong&gt;Configuração Wired-AND&lt;/strong&gt;:&lt;/p&gt;&lt;ul&gt;&lt;li&gt;O barramento utiliza uma configuração &lt;strong&gt;wired-AND&lt;/strong&gt;, onde vários dispositivos compartilham a mesma linha de comunicação.&lt;/li&gt;&lt;li&gt;Quando um dispositivo transmite, ele faz isso ao &lt;strong&gt;curto-circuitar brevemente o barramento&lt;/strong&gt; para um nível de tensão baixo.&lt;/li&gt;&lt;/ul&gt;&lt;/li&gt;&lt;li&gt;&lt;p&gt;&lt;strong&gt;Tolerância da Fonte de Alimentação&lt;/strong&gt;:&lt;/p&gt;&lt;ul&gt;&lt;li&gt;A fonte de alimentação do barramento deve ser capaz de suportar esses breves curto-circuitos sem falhas.&lt;/li&gt;&lt;li&gt;Ela limita a corrente total no barramento a &lt;strong&gt;250 mA&lt;/strong&gt;.&lt;/li&gt;&lt;/ul&gt;&lt;/li&gt;&lt;/ol&gt;" style="text;whiteSpace=wrap;html=1;fillColor=#f5f5f5;fontColor=#333333;strokeColor=#666666;sketch=1;curveFitting=1;jiggle=2;shadow=1;" vertex="1" parent="1">
          <mxGeometry x="4997" y="340" width="740" height="200" as="geometry" />
        </mxCell>
        <mxCell id="GAST41TI2rblRG072SL0-36" style="edgeStyle=orthogonalEdgeStyle;rounded=0;orthogonalLoop=1;jettySize=auto;html=1;exitX=1;exitY=1;exitDx=0;exitDy=0;entryX=0;entryY=0;entryDx=0;entryDy=0;shape=flexArrow;fillColor=#f5f5f5;strokeColor=#666666;" edge="1" parent="1" source="GAST41TI2rblRG072SL0-34" target="GAST41TI2rblRG072SL0-35">
          <mxGeometry relative="1" as="geometry">
            <Array as="points">
              <mxPoint x="6349" y="760" />
              <mxPoint x="6405" y="760" />
              <mxPoint x="6405" y="-130" />
              <mxPoint x="6460" y="-130" />
            </Array>
          </mxGeometry>
        </mxCell>
        <mxCell id="GAST41TI2rblRG072SL0-34" value="&lt;p&gt;&lt;font style=&quot;font-size: 14px;&quot;&gt;Apesar de o &lt;b&gt;Cabo &lt;/b&gt;de controle DALI operar com uma &lt;strong style=&quot;&quot;&gt;potencial de baixa tensão extra (ELV)&lt;/strong&gt;, ele não é classificado como &lt;strong style=&quot;&quot;&gt;SELV&lt;/strong&gt; (Safety Extra Low Voltage) e, por isso, deve ser tratado como se tivesse apenas &lt;strong style=&quot;&quot;&gt;isolamento básico&lt;/strong&gt; em relação à rede elétrica (mains). Isso implica algumas considerações importantes:&lt;/font&gt;&lt;/p&gt;&lt;hr&gt;&lt;h3&gt;&lt;strong&gt;&lt;font style=&quot;font-size: 14px;&quot;&gt;Implicações para o Cabo de Controle DALI&lt;/font&gt;&lt;/strong&gt;&lt;/h3&gt;&lt;ol&gt;&lt;li&gt;&lt;p&gt;&lt;font style=&quot;font-size: 14px;&quot;&gt;&lt;strong&gt;Isolamento Básico&lt;/strong&gt;:&lt;/font&gt;&lt;/p&gt;&lt;ul&gt;&lt;li&gt;&lt;font style=&quot;font-size: 14px;&quot;&gt;O sistema DALI não é considerado SELV, o que significa que, embora a tensão no barramento seja baixa, o isolamento do cabo DALI não é garantido para segurança extra contra choques elétricos em caso de falhas.&lt;/font&gt;&lt;/li&gt;&lt;li&gt;&lt;font style=&quot;font-size: 14px;&quot;&gt;Isso exige que o cabo DALI tenha &lt;strong&gt;isolamento adequado&lt;/strong&gt; para ser compatível com a rede elétrica, mas sem os mesmos requisitos de segurança de um sistema SELV.&lt;/font&gt;&lt;/li&gt;&lt;/ul&gt;&lt;/li&gt;&lt;li&gt;&lt;p&gt;&lt;font style=&quot;font-size: 14px;&quot;&gt;&lt;strong&gt;Requisitos para o Cabo de Rede&lt;/strong&gt;:&lt;/font&gt;&lt;/p&gt;&lt;ul&gt;&lt;li&gt;&lt;font style=&quot;font-size: 14px;&quot;&gt;Como o DALI não é SELV, o cabo utilizado &lt;strong&gt;deve ser classificado para tensões de rede elétrica&lt;/strong&gt; (mains-rated).&lt;/font&gt;&lt;/li&gt;&lt;li&gt;&lt;font style=&quot;font-size: 14px;&quot;&gt;Isso garante que o cabo possa suportar eventuais falhas no isolamento e manter a segurança.&lt;/font&gt;&lt;/li&gt;&lt;/ul&gt;&lt;/li&gt;&lt;/ol&gt;&lt;hr&gt;&lt;h3&gt;&lt;strong&gt;&lt;font style=&quot;font-size: 14px;&quot;&gt;Vantagens e Desvantagens&lt;/font&gt;&lt;/strong&gt;&lt;/h3&gt;&lt;ol&gt;&lt;li&gt;&lt;font style=&quot;font-size: 14px;&quot;&gt;&lt;strong&gt;Vantagens&lt;/strong&gt;:&lt;/font&gt;&lt;ul&gt;&lt;li&gt;&lt;font style=&quot;font-size: 14px;&quot;&gt;O &lt;strong&gt;cabo de controle DALI&lt;/strong&gt; pode ser instalado &lt;strong&gt;ao lado de cabos de alimentação elétrica&lt;/strong&gt; (mains), ou até mesmo dentro de &lt;strong&gt;cabelos multifilares&lt;/strong&gt; que também transportam corrente de rede elétrica. Isso facilita a instalação e reduz a necessidade de um cabeamento separado.&lt;/font&gt;&lt;/li&gt;&lt;/ul&gt;&lt;/li&gt;&lt;li&gt;&lt;font style=&quot;font-size: 14px;&quot;&gt;&lt;strong&gt;Desvantagens&lt;/strong&gt;:&lt;/font&gt;&lt;ul&gt;&lt;li&gt;&lt;font style=&quot;font-size: 14px;&quot;&gt;A &lt;strong&gt;necessidade de isolamento adicional&lt;/strong&gt; do cabo DALI pode tornar a instalação mais cara e complexa, já que o cabo precisa ser compatível com as exigências de redes elétricas.&lt;/font&gt;&lt;/li&gt;&lt;/ul&gt;&lt;/li&gt;&lt;/ol&gt;&lt;hr&gt;&lt;h3&gt;&lt;strong&gt;&lt;font style=&quot;font-size: 14px;&quot;&gt;Implicações para Dispositivos Alimentados pela Rede&lt;/font&gt;&lt;/strong&gt;&lt;/h3&gt;&lt;ul&gt;&lt;li&gt;&lt;font style=&quot;font-size: 14px;&quot;&gt;&lt;strong&gt;Dispositivos alimentados pela rede (mains-powered)&lt;/strong&gt;, como os &lt;strong&gt;drivers de LED&lt;/strong&gt;, precisam garantir &lt;strong&gt;isolamento funcional&lt;/strong&gt; entre a rede elétrica e os fios de controle DALI.&lt;/font&gt;&lt;ul&gt;&lt;li&gt;&lt;font style=&quot;font-size: 14px;&quot;&gt;Isso significa que, apesar de estarem conectados à rede elétrica, esses dispositivos não devem permitir que a eletricidade da rede entre em contato com a comunicação DALI.&lt;/font&gt;&lt;/li&gt;&lt;/ul&gt;&lt;/li&gt;&lt;/ul&gt;" style="text;whiteSpace=wrap;html=1;fillColor=#f5f5f5;fontColor=#333333;strokeColor=#666666;sketch=1;curveFitting=1;jiggle=2;shadow=1;" vertex="1" parent="1">
          <mxGeometry x="5789" y="-70" width="560" height="770" as="geometry" />
        </mxCell>
        <UserObject label="&lt;p&gt;&lt;font style=&quot;font-size: 14px;&quot;&gt;No sistema DALI, há um requisito importante para o &lt;strong style=&quot;&quot;&gt;cabo de rede&lt;/strong&gt;, relacionado à &lt;strong style=&quot;&quot;&gt;queda de tensão&lt;/strong&gt; ao longo do cabo:&lt;/font&gt;&lt;/p&gt;&lt;hr&gt;&lt;h3&gt;&lt;strong&gt;&lt;font style=&quot;font-size: 14px;&quot;&gt;Requisito de Queda de Tensão&lt;/font&gt;&lt;/strong&gt;&lt;/h3&gt;&lt;ul&gt;&lt;li&gt;&lt;font style=&quot;font-size: 14px;&quot;&gt;A &lt;strong&gt;queda de tensão máxima&lt;/strong&gt; ao longo do cabo DALI não pode exceder &lt;strong&gt;2 volts&lt;/strong&gt;.&lt;/font&gt;&lt;ul&gt;&lt;li&gt;&lt;font style=&quot;font-size: 14px;&quot;&gt;Isso significa que, quando a corrente de alimentação de 250 mA estiver sendo fornecida ao sistema, a resistência do cabo precisa ser baixa o suficiente para garantir que essa queda de tensão seja mantida dentro dos limites.&lt;/font&gt;&lt;/li&gt;&lt;/ul&gt;&lt;/li&gt;&lt;/ul&gt;&lt;hr&gt;&lt;h3&gt;&lt;strong&gt;&lt;font style=&quot;font-size: 14px;&quot;&gt;Cálculo de Resistência&lt;/font&gt;&lt;/strong&gt;&lt;/h3&gt;&lt;ul&gt;&lt;li&gt;&lt;font style=&quot;font-size: 14px;&quot;&gt;Para uma corrente de 250 mA (0,25 A) e uma queda de tensão de 2 V, a resistência total do fio deve ser &lt;strong&gt;≤ 4 Ω&lt;/strong&gt; por fio.&lt;/font&gt;&lt;ul&gt;&lt;li&gt;&lt;font style=&quot;font-size: 14px;&quot;&gt;&lt;strong&gt;Lei de Ohm&lt;/strong&gt;: &lt;span class=&quot;katex&quot;&gt;&lt;span class=&quot;katex-mathml&quot;&gt;&lt;math xmlns=&quot;http://www.w3.org/1998/Math/MathML&quot;&gt;&lt;mrow&gt;&lt;mi&gt;V&lt;/mi&gt;&lt;mo&gt;=&lt;/mo&gt;&lt;mi&gt;I&lt;/mi&gt;&lt;mo&gt;×&lt;/mo&gt;&lt;mi&gt;R&lt;/mi&gt;&lt;/mrow&gt;V = I \times R&lt;/math&gt;&lt;/span&gt;&lt;span class=&quot;katex-html&quot; aria-hidden=&quot;true&quot;&gt;&lt;span class=&quot;base&quot;&gt;&lt;span class=&quot;strut&quot;&gt;&lt;/span&gt;&lt;span class=&quot;mord mathnormal&quot;&gt;V&lt;/span&gt;&lt;span class=&quot;mspace&quot;&gt;&lt;/span&gt;&lt;span class=&quot;mrel&quot;&gt;=&lt;/span&gt;&lt;span class=&quot;mspace&quot;&gt;&lt;/span&gt;&lt;/span&gt;&lt;span class=&quot;base&quot;&gt;&lt;span class=&quot;strut&quot;&gt;&lt;/span&gt;&lt;span class=&quot;mord mathnormal&quot;&gt;I&lt;/span&gt;&lt;span class=&quot;mspace&quot;&gt;&lt;/span&gt;&lt;span class=&quot;mbin&quot;&gt;×&lt;/span&gt;&lt;span class=&quot;mspace&quot;&gt;&lt;/span&gt;&lt;/span&gt;&lt;span class=&quot;base&quot;&gt;&lt;span class=&quot;strut&quot;&gt;&lt;/span&gt;&lt;span class=&quot;mord mathnormal&quot;&gt;R&lt;/span&gt;&lt;/span&gt;&lt;/span&gt;&lt;/span&gt;, onde &lt;span class=&quot;katex&quot;&gt;&lt;span class=&quot;katex-mathml&quot;&gt;&lt;math xmlns=&quot;http://www.w3.org/1998/Math/MathML&quot;&gt;&lt;mrow&gt;&lt;mi&gt;V&lt;/mi&gt;&lt;/mrow&gt;V&lt;/math&gt;&lt;/span&gt;&lt;span class=&quot;katex-html&quot; aria-hidden=&quot;true&quot;&gt;&lt;span class=&quot;base&quot;&gt;&lt;span class=&quot;strut&quot;&gt;&lt;/span&gt;&lt;span class=&quot;mord mathnormal&quot;&gt;V&lt;/span&gt;&lt;/span&gt;&lt;/span&gt;&lt;/span&gt; é a queda de tensão, &lt;span class=&quot;katex&quot;&gt;&lt;span class=&quot;katex-mathml&quot;&gt;&lt;math xmlns=&quot;http://www.w3.org/1998/Math/MathML&quot;&gt;&lt;mrow&gt;&lt;mi&gt;I&lt;/mi&gt;&lt;/mrow&gt;I&lt;/math&gt;&lt;/span&gt;&lt;span class=&quot;katex-html&quot; aria-hidden=&quot;true&quot;&gt;&lt;span class=&quot;base&quot;&gt;&lt;span class=&quot;strut&quot;&gt;&lt;/span&gt;&lt;span class=&quot;mord mathnormal&quot;&gt;I&lt;/span&gt;&lt;/span&gt;&lt;/span&gt;&lt;/span&gt; é a corrente e &lt;span class=&quot;katex&quot;&gt;&lt;span class=&quot;katex-mathml&quot;&gt;&lt;math xmlns=&quot;http://www.w3.org/1998/Math/MathML&quot;&gt;&lt;mrow&gt;&lt;mi&gt;R&lt;/mi&gt;&lt;/mrow&gt;R&lt;/math&gt;&lt;/span&gt;&lt;span class=&quot;katex-html&quot; aria-hidden=&quot;true&quot;&gt;&lt;span class=&quot;base&quot;&gt;&lt;span class=&quot;strut&quot;&gt;&lt;/span&gt;&lt;span class=&quot;mord mathnormal&quot;&gt;R&lt;/span&gt;&lt;/span&gt;&lt;/span&gt;&lt;/span&gt; é a resistência.&lt;/font&gt;&lt;/li&gt;&lt;li&gt;&lt;font style=&quot;font-size: 14px;&quot;&gt;Para que a queda de tensão seja de 2 V com 250 mA de corrente, a resistência do fio precisa ser &lt;strong&gt;menor ou igual a 4 Ω&lt;/strong&gt; por fio.&lt;/font&gt;&lt;/li&gt;&lt;/ul&gt;&lt;/li&gt;&lt;/ul&gt;&lt;hr&gt;&lt;h3&gt;&lt;strong&gt;&lt;font style=&quot;font-size: 14px;&quot;&gt;Tamanho do Cabo&lt;/font&gt;&lt;/strong&gt;&lt;/h3&gt;&lt;ul&gt;&lt;li&gt;&lt;p&gt;&lt;font style=&quot;font-size: 14px;&quot;&gt;O &lt;strong&gt;tamanho do fio&lt;/strong&gt; necessário para atingir essa resistência depende do comprimento do barramento (bus).&lt;/font&gt;&lt;/p&gt;&lt;ul&gt;&lt;li&gt;&lt;font style=&quot;font-size: 14px;&quot;&gt;Para distâncias maiores, é necessário usar fios mais grossos para manter a resistência baixa.&lt;/font&gt;&lt;/li&gt;&lt;/ul&gt;&lt;/li&gt;&lt;li&gt;&lt;p&gt;&lt;font style=&quot;font-size: 14px;&quot;&gt;&lt;strong&gt;Comprimento máximo recomendado&lt;/strong&gt;: Até &lt;strong&gt;300 metros&lt;/strong&gt; de comprimento do barramento com a fonte de alimentação máxima do sistema.&lt;/font&gt;&lt;/p&gt;&lt;/li&gt;&lt;li&gt;&lt;p&gt;&lt;font style=&quot;font-size: 14px;&quot;&gt;&lt;strong style=&quot;&quot;&gt;Tamanho recomendado do fio&lt;/strong&gt;: Até &lt;strong style=&quot;&quot;&gt;2,5 mm²&lt;/strong&gt; de seção transversal para garantir que a resistência do cabo esteja dentro do limite.&lt;/font&gt;&lt;/p&gt;&lt;/li&gt;&lt;/ul&gt;" link="&lt;p&gt;No sistema DALI, há um requisito importante para o &lt;strong&gt;cabo de rede&lt;/strong&gt;, relacionado à &lt;strong&gt;queda de tensão&lt;/strong&gt; ao longo do cabo:&lt;/p&gt;&lt;hr&gt;&lt;h3&gt;&lt;strong&gt;Requisito de Queda de Tensão&lt;/strong&gt;&lt;/h3&gt;&lt;ul&gt;&lt;li&gt;A &lt;strong&gt;queda de tensão máxima&lt;/strong&gt; ao longo do cabo DALI não pode exceder &lt;strong&gt;2 volts&lt;/strong&gt;.&lt;ul&gt;&lt;li&gt;Isso significa que, quando a corrente de alimentação de 250 mA estiver sendo fornecida ao sistema, a resistência do cabo precisa ser baixa o suficiente para garantir que essa queda de tensão seja mantida dentro dos limites.&lt;/li&gt;&lt;/ul&gt;&lt;/li&gt;&lt;/ul&gt;&lt;hr&gt;&lt;h3&gt;&lt;strong&gt;Cálculo de Resistência&lt;/strong&gt;&lt;/h3&gt;&lt;ul&gt;&lt;li&gt;Para uma corrente de 250 mA (0,25 A) e uma queda de tensão de 2 V, a resistência total do fio deve ser &lt;strong&gt;≤ 4 Ω&lt;/strong&gt; por fio.&lt;ul&gt;&lt;li&gt;&lt;strong&gt;Lei de Ohm&lt;/strong&gt;: &lt;span class=&quot;katex&quot;&gt;&lt;span class=&quot;katex-mathml&quot;&gt;&lt;math xmlns=&quot;http://www.w3.org/1998/Math/MathML&quot;&gt;&lt;mrow&gt;&lt;mi&gt;V&lt;/mi&gt;&lt;mo&gt;=&lt;/mo&gt;&lt;mi&gt;I&lt;/mi&gt;&lt;mo&gt;×&lt;/mo&gt;&lt;mi&gt;R&lt;/mi&gt;&lt;/mrow&gt;V = I \times R&lt;/math&gt;&lt;/span&gt;&lt;span class=&quot;katex-html&quot; aria-hidden=&quot;true&quot;&gt;&lt;span class=&quot;base&quot;&gt;&lt;span class=&quot;strut&quot;&gt;&lt;/span&gt;&lt;span class=&quot;mord mathnormal&quot;&gt;V&lt;/span&gt;&lt;span class=&quot;mspace&quot;&gt;&lt;/span&gt;&lt;span class=&quot;mrel&quot;&gt;=&lt;/span&gt;&lt;span class=&quot;mspace&quot;&gt;&lt;/span&gt;&lt;/span&gt;&lt;span class=&quot;base&quot;&gt;&lt;span class=&quot;strut&quot;&gt;&lt;/span&gt;&lt;span class=&quot;mord mathnormal&quot;&gt;I&lt;/span&gt;&lt;span class=&quot;mspace&quot;&gt;&lt;/span&gt;&lt;span class=&quot;mbin&quot;&gt;×&lt;/span&gt;&lt;span class=&quot;mspace&quot;&gt;&lt;/span&gt;&lt;/span&gt;&lt;span class=&quot;base&quot;&gt;&lt;span class=&quot;strut&quot;&gt;&lt;/span&gt;&lt;span class=&quot;mord mathnormal&quot;&gt;R&lt;/span&gt;&lt;/span&gt;&lt;/span&gt;&lt;/span&gt;, onde &lt;span class=&quot;katex&quot;&gt;&lt;span class=&quot;katex-mathml&quot;&gt;&lt;math xmlns=&quot;http://www.w3.org/1998/Math/MathML&quot;&gt;&lt;mrow&gt;&lt;mi&gt;V&lt;/mi&gt;&lt;/mrow&gt;V&lt;/math&gt;&lt;/span&gt;&lt;span class=&quot;katex-html&quot; aria-hidden=&quot;true&quot;&gt;&lt;span class=&quot;base&quot;&gt;&lt;span class=&quot;strut&quot;&gt;&lt;/span&gt;&lt;span class=&quot;mord mathnormal&quot;&gt;V&lt;/span&gt;&lt;/span&gt;&lt;/span&gt;&lt;/span&gt; é a queda de tensão, &lt;span class=&quot;katex&quot;&gt;&lt;span class=&quot;katex-mathml&quot;&gt;&lt;math xmlns=&quot;http://www.w3.org/1998/Math/MathML&quot;&gt;&lt;mrow&gt;&lt;mi&gt;I&lt;/mi&gt;&lt;/mrow&gt;I&lt;/math&gt;&lt;/span&gt;&lt;span class=&quot;katex-html&quot; aria-hidden=&quot;true&quot;&gt;&lt;span class=&quot;base&quot;&gt;&lt;span class=&quot;strut&quot;&gt;&lt;/span&gt;&lt;span class=&quot;mord mathnormal&quot;&gt;I&lt;/span&gt;&lt;/span&gt;&lt;/span&gt;&lt;/span&gt; é a corrente e &lt;span class=&quot;katex&quot;&gt;&lt;span class=&quot;katex-mathml&quot;&gt;&lt;math xmlns=&quot;http://www.w3.org/1998/Math/MathML&quot;&gt;&lt;mrow&gt;&lt;mi&gt;R&lt;/mi&gt;&lt;/mrow&gt;R&lt;/math&gt;&lt;/span&gt;&lt;span class=&quot;katex-html&quot; aria-hidden=&quot;true&quot;&gt;&lt;span class=&quot;base&quot;&gt;&lt;span class=&quot;strut&quot;&gt;&lt;/span&gt;&lt;span class=&quot;mord mathnormal&quot;&gt;R&lt;/span&gt;&lt;/span&gt;&lt;/span&gt;&lt;/span&gt; é a resistência.&lt;/li&gt;&lt;li&gt;Para que a queda de tensão seja de 2 V com 250 mA de corrente, a resistência do fio precisa ser &lt;strong&gt;menor ou igual a 4 Ω&lt;/strong&gt; por fio.&lt;/li&gt;&lt;/ul&gt;&lt;/li&gt;&lt;/ul&gt;&lt;hr&gt;&lt;h3&gt;&lt;strong&gt;Tamanho do Cabo&lt;/strong&gt;&lt;/h3&gt;&lt;ul&gt;&lt;li&gt;&lt;p&gt;O &lt;strong&gt;tamanho do fio&lt;/strong&gt; necessário para atingir essa resistência depende do comprimento do barramento (bus).&lt;/p&gt;&lt;ul&gt;&lt;li&gt;Para distâncias maiores, é necessário usar fios mais grossos para manter a resistência baixa.&lt;/li&gt;&lt;/ul&gt;&lt;/li&gt;&lt;li&gt;&lt;p&gt;&lt;strong&gt;Comprimento máximo recomendado&lt;/strong&gt;: Até &lt;strong&gt;300 metros&lt;/strong&gt; de comprimento do barramento com a fonte de alimentação máxima do sistema.&lt;/p&gt;&lt;/li&gt;&lt;li&gt;&lt;p&gt;&lt;strong&gt;Tamanho recomendado do fio&lt;/strong&gt;: Até &lt;strong&gt;2,5 mm²&lt;/strong&gt; de seção transversal para garantir que a resistência do cabo esteja dentro do limite.&lt;/p&gt;&lt;/li&gt;&lt;/ul&gt;" id="GAST41TI2rblRG072SL0-35">
          <mxCell style="text;whiteSpace=wrap;html=1;fillColor=#f5f5f5;fontColor=#333333;strokeColor=#666666;sketch=1;curveFitting=1;jiggle=2;shadow=1;" vertex="1" parent="1">
            <mxGeometry x="6460" y="-70" width="560" height="760" as="geometry" />
          </mxCell>
        </UserObject>
        <mxCell id="GAST41TI2rblRG072SL0-37" value="&lt;p&gt;&lt;font style=&quot;font-size: 14px;&quot;&gt;A velocidade de comunicação no sistema DALI é mantida baixa por alguns motivos, que ajudam a garantir a &lt;strong style=&quot;&quot;&gt;confiabilidade da comunicação&lt;/strong&gt;, especialmente em ambientes com ruído elétrico significativo. Aqui está uma explicação detalhada:&lt;/font&gt;&lt;/p&gt;&lt;hr&gt;&lt;h3&gt;&lt;strong&gt;&lt;font style=&quot;font-size: 14px;&quot;&gt;Baixa Velocidade de Comunicação&lt;/font&gt;&lt;/strong&gt;&lt;/h3&gt;&lt;ul&gt;&lt;li&gt;&lt;font style=&quot;font-size: 14px;&quot;&gt;A &lt;strong&gt;baixa velocidade&lt;/strong&gt; de transmissão (1200 bits por segundo) tem várias vantagens, incluindo:&lt;/font&gt;&lt;ul&gt;&lt;li&gt;&lt;font style=&quot;font-size: 14px;&quot;&gt;&lt;strong&gt;Sem necessidade de resistores de terminação&lt;/strong&gt;: Isso simplifica a instalação e reduz o custo do sistema, pois os resistores de terminação são geralmente usados para evitar reflexões de sinal em sistemas de alta velocidade.&lt;/font&gt;&lt;/li&gt;&lt;/ul&gt;&lt;/li&gt;&lt;/ul&gt;&lt;hr&gt;&lt;h3&gt;&lt;strong&gt;&lt;font style=&quot;font-size: 14px;&quot;&gt;Uso de Voltagens Relativamente Altas&lt;/font&gt;&lt;/strong&gt;&lt;/h3&gt;&lt;ul&gt;&lt;li&gt;&lt;p&gt;&lt;font style=&quot;font-size: 14px;&quot;&gt;&lt;strong&gt;Níveis de voltagem para transmissão de dados&lt;/strong&gt;:&lt;/font&gt;&lt;/p&gt;&lt;ul&gt;&lt;li&gt;&lt;font style=&quot;font-size: 14px;&quot;&gt;&lt;strong&gt;Baixo&lt;/strong&gt;: &lt;strong&gt;0 ± 4,5 V&lt;/strong&gt;.&lt;/font&gt;&lt;/li&gt;&lt;li&gt;&lt;font style=&quot;font-size: 14px;&quot;&gt;&lt;strong&gt;Alto&lt;/strong&gt;: &lt;strong&gt;16 ± 6,5 V&lt;/strong&gt;.&lt;/font&gt;&lt;/li&gt;&lt;/ul&gt;&lt;/li&gt;&lt;li&gt;&lt;p&gt;&lt;font style=&quot;font-size: 14px;&quot;&gt;A &lt;strong&gt;diferenciação de voltagem&lt;/strong&gt; entre os estados baixo e alto ajuda na &lt;strong&gt;transmissão confiável&lt;/strong&gt; de dados, tornando o sistema resistente a ruídos elétricos.&lt;/font&gt;&lt;/p&gt;&lt;/li&gt;&lt;/ul&gt;&lt;hr&gt;&lt;h3&gt;&lt;strong&gt;&lt;font style=&quot;font-size: 14px;&quot;&gt;Resistência a Ruído Elétrico&lt;/font&gt;&lt;/strong&gt;&lt;/h3&gt;&lt;ul&gt;&lt;li&gt;&lt;p&gt;&lt;font style=&quot;font-size: 14px;&quot;&gt;A &lt;strong&gt;utilização de voltagens mais altas&lt;/strong&gt; (em comparação com sistemas de baixa tensão) permite que o sistema DALI seja mais robusto em ambientes com &lt;strong&gt;ruído elétrico significativo&lt;/strong&gt;, como o encontrado em instalações industriais ou em proximidade de cabos de energia elétrica.&lt;/font&gt;&lt;/p&gt;&lt;/li&gt;&lt;li&gt;&lt;p&gt;&lt;font style=&quot;font-size: 14px;&quot;&gt;Isso torna o DALI adequado para ser instalado ao lado de &lt;strong&gt;cabos de energia elétrica&lt;/strong&gt; ou em ambientes onde outras fontes de interferência possam afetar sistemas de comunicação mais sensíveis.&lt;/font&gt;&lt;/p&gt;&lt;/li&gt;&lt;/ul&gt;&lt;hr&gt;&lt;h3&gt;&lt;strong&gt;&lt;font style=&quot;font-size: 14px;&quot;&gt;Capacidade de Suportar Retificadores de Ponte&lt;/font&gt;&lt;/strong&gt;&lt;/h3&gt;&lt;ul&gt;&lt;li&gt;&lt;font style=&quot;font-size: 14px;&quot;&gt;A &lt;strong style=&quot;&quot;&gt;tensão de comunicação elevada&lt;/strong&gt; também é vantajosa porque fornece &lt;strong style=&quot;&quot;&gt;margem suficiente&lt;/strong&gt; para o uso de &lt;strong style=&quot;&quot;&gt;retificadores de ponte&lt;/strong&gt; em cada dispositivo escravo (ou seja, dispositivos DALI). Esses retificadores permitem que os dispositivos sejam &lt;strong style=&quot;&quot;&gt;polaridade-insensíveis&lt;/strong&gt;, o que simplifica a instalação.&lt;/font&gt;&lt;/li&gt;&lt;/ul&gt;" style="text;whiteSpace=wrap;html=1;fillColor=#f5f5f5;fontColor=#333333;strokeColor=#666666;sketch=1;curveFitting=1;jiggle=2;shadow=1;strokeWidth=1;" vertex="1" parent="1">
          <mxGeometry x="7100" y="-70" width="560" height="760" as="geometry" />
        </mxCell>
        <mxCell id="GAST41TI2rblRG072SL0-38" value="&lt;p&gt;&lt;font style=&quot;font-size: 14px;&quot;&gt;Cada bit é enviado utilizando a &lt;strong style=&quot;&quot;&gt;codificação Manchester&lt;/strong&gt;. Nesta codificação:&lt;/font&gt;&lt;/p&gt;&lt;ul&gt;&lt;li&gt;&lt;font style=&quot;font-size: 14px;&quot;&gt;Um bit &quot;1&quot; é representado por uma transição de &lt;strong&gt;baixo para alto&lt;/strong&gt; durante a primeira metade do tempo do bit, e novamente de &lt;strong&gt;baixo para alto&lt;/strong&gt; na segunda metade.&lt;/font&gt;&lt;/li&gt;&lt;li&gt;&lt;font style=&quot;font-size: 14px;&quot;&gt;Um bit &quot;0&quot; é o inverso: começa com &lt;strong&gt;alto&lt;/strong&gt; na primeira metade e faz a transição para &lt;strong&gt;baixo&lt;/strong&gt; na segunda metade.&lt;/font&gt;&lt;/li&gt;&lt;/ul&gt;&lt;p&gt;&lt;font style=&quot;font-size: 14px;&quot;&gt;O objetivo dessa codificação é garantir que a &lt;strong&gt;energia&lt;/strong&gt; esteja presente durante toda a duração de cada bit, o que ajuda a melhorar a fiabilidade da transmissão, pois assegura que o sinal seja sempre detectado, mesmo em condições adversas.&lt;/font&gt;&lt;/p&gt;&lt;p&gt;&lt;font style=&quot;font-size: 14px;&quot;&gt;Quando o barramento (ou linha de comunicação) está &lt;strong&gt;inativo&lt;/strong&gt;, o &lt;strong&gt;nível de tensão&lt;/strong&gt; permanece continuamente &lt;strong&gt;alto&lt;/strong&gt;. No entanto, este estado de &lt;strong&gt;inatividade&lt;/strong&gt; não é confundido com um bit de dado &quot;1&quot;, já que a codificação Manchester exige transições para representar os bits.&lt;/font&gt;&lt;/p&gt;&lt;p&gt;&lt;font style=&quot;font-size: 14px;&quot;&gt;A estrutura de uma &lt;strong&gt;frame&lt;/strong&gt; (ou pacote de dados) começa com um &lt;strong&gt;bit de início&lt;/strong&gt; (start bit), que é sempre um &lt;strong&gt;&quot;1&quot;&lt;/strong&gt;. Seguem-se entre &lt;strong&gt;8 a 32 bits de dados&lt;/strong&gt;, sendo que o bit mais significativo (MSB - Most Significant Bit) é transmitido primeiro, ao contrário do padrão RS-232, onde o bit menos significativo (LSB - Least Significant Bit) é transmitido primeiro.&lt;/font&gt;&lt;/p&gt;&lt;p&gt;&lt;font style=&quot;font-size: 14px;&quot;&gt;Após os dados, há um &lt;strong&gt;período de inatividade mínima de 2,45 ms&lt;/strong&gt;. Esse período de inatividade serve para indicar o fim da transmissão e dar tempo para a linha de comunicação retornar ao estado de &lt;strong&gt;tensão alta&lt;/strong&gt;.&lt;/font&gt;&lt;/p&gt;&lt;p&gt;&lt;font style=&quot;font-size: 14px;&quot;&gt;Resumindo, a codificação Manchester permite uma transmissão robusta e contínua de energia durante a comunicação, enquanto a estrutura da frame define como os bits são organizados, com um bit de início, dados e um período de inatividade no final.&lt;/font&gt;&lt;/p&gt;" style="text;whiteSpace=wrap;html=1;fillColor=#f5f5f5;fontColor=#333333;strokeColor=#666666;sketch=1;curveFitting=1;jiggle=2;shadow=1;" vertex="1" parent="1">
          <mxGeometry x="7710" y="-70" width="580" height="760" as="geometry" />
        </mxCell>
      </root>
    </mxGraphModel>
  </diagram>
</mxfile>
